<svg id="Layer_1" data-name="Layer 1" xmlns="http://www.w3.org/2000/svg" viewBox="0 0 980.57 274.11"><defs><style>.cls-1{fill:#231f20;}</style></defs><path class="cls-1" d="M71.45,262.82q-21.73-35.13-21.74-91.48V158.47q0-58.78,24.53-94.45t64.52-35.65q18.44,0,29.74,4.7a89.91,89.91,0,0,1,21.4,12.69l-7,8.7A96,96,0,0,0,165.9,44q-9.41-4.52-27.14-4.52-20.52,0-35.3,10.26a80,80,0,0,0-24.18,27,133.45,133.45,0,0,0-13.91,38.09,210.19,210.19,0,0,0-4.52,43.66v12.87a233.28,233.28,0,0,0,3.65,41,135.67,135.67,0,0,0,12,37.22,84.66,84.66,0,0,0,22.09,28q13.74,11.31,33.56,13.4l-1,11.13Q93.19,297.94,71.45,262.82ZM149.55,291q24.69-2.1,42.78-15.66V199.16H134.94V187.68h68.52v92.88l-2.08,1.74Q179.81,300,150.24,302.13Z" transform="translate(-49.71 -28.02)"/><path class="cls-1" d="M371.82,302.13H357.91l-43.14-78.27q-18.09,7.3-42.09,7.31H262.59q-3.48,0-13.91-.35V219.69H272q42.78,0,64.7-24.7t21.91-63.31v-3.83q0-38.94-21.91-63.83T272,39.15H260.51v99.49q-5.92,0-11.83-.35V28h24Q320,28,345.56,56.2t25.56,71V132q0,28.88-11.82,51.65A84.12,84.12,0,0,1,325.21,219Z" transform="translate(-49.71 -28.02)"/><path class="cls-1" d="M431.3,302.13H417L508.52,28h2.79l92.18,274.11h-15q-24.71-73.74-39.31-118.62t-27-82.61q-12.35-37.74-12.35-39.83Zm93.22,0H512l-20.87-77.92h12.52Z" transform="translate(-49.71 -28.02)"/><path class="cls-1" d="M680.7,255.17q-31.31-39.3-31.65-94.62,0-29.22,9.56-50.78T687,68a118.24,118.24,0,0,1,43.49-29.39,145.2,145.2,0,0,1,52.87-9.56q33.39-.34,59.83,13.91a123.14,123.14,0,0,1,45.22,41.39L880,91a112,112,0,0,0-41.39-37.91q-25.39-13.57-57-13.57-52.19,0-87,36.52-17.4,18.45-26.09,38.09t-8.7,46.44q0,51.13,28.87,87.31,30.27,39,81.4,42.44l-.7,11.13Q714.1,297.26,680.7,255.17Zm109.58,35.48A116.55,116.55,0,0,0,880.37,242l8,7a127.76,127.76,0,0,1-45.57,39.3,133.54,133.54,0,0,1-52.18,13.57Z" transform="translate(-49.71 -28.02)"/><path class="cls-1" d="M933.58,200.55V28h93.23v9.74H943.32V200.55Zm0,101.58V211.34h23.66v9.39H943.32v72h87v9.39Z" transform="translate(-49.71 -28.02)"/></svg>